<?xml version="1.0" standalone="no"?>
<!DOCTYPE svg PUBLIC "-//W3C//DTD SVG 20010904//EN"
 "http://www.w3.org/TR/2001/REC-SVG-20010904/DTD/svg10.dtd">
<svg version="1.0" xmlns="http://www.w3.org/2000/svg"
 width="200.000000pt" height="50.000000pt" viewBox="0 0 1800 5"
>

<g transform="translate(0, 500) scale(0.3,-0.25)"
fill="#CC0000" stroke="none">
<path d="M474 2217 c-2 -7 -3 -107 -2 -222 l3 -210 215 -3 c232 -3 272 2 311
44 34 37 35 131 1 167 -23 24 -23 26 -8 71 9 25 14 51 12 58 -3 7 -7 26 -10
41 -4 16 -20 36 -39 47 -29 18 -51 20 -255 20 -171 0 -224 -3 -228 -13z m390
-100 c13 -10 16 -20 12 -35 -7 -21 -13 -22 -142 -22 l-134 0 0 28 c0 16 3 32
7 35 13 13 238 8 257 -6z m40 -183 c8 -21 8 -20 -10 -38 -12 -13 -40 -16 -139
-16 -68 0 -130 3 -139 6 -10 4 -16 18 -16 35 l0 29 149 0 c127 0 150 -2 155
-16z"/>
<path d="M1134 2217 c-2 -7 -3 -107 -2 -222 l3 -210 60 0 60 0 5 55 5 55 82 3
81 3 37 -61 36 -60 65 0 c76 0 79 7 35 77 l-30 47 39 42 c79 86 56 228 -46
270 -46 19 -422 20 -430 1z m366 -100 c18 -9 26 -22 28 -45 6 -57 -6 -62 -144
-62 l-124 0 0 53 c0 30 3 57 7 60 12 12 207 7 233 -6z"/>
<path d="M1767 2224 c-4 -4 -7 -27 -7 -51 l0 -43 53 0 c28 0 58 -4 65 -8 9 -6
12 -37 10 -118 l-3 -109 -40 -3 c-83 -5 -86 -7 -83 -60 l3 -47 185 0 185 0 3
47 c3 53 0 55 -83 60 l-40 3 -3 104 c-2 67 1 108 9 117 7 9 31 14 66 14 l54 0
-3 48 -3 47 -181 3 c-99 1 -183 -1 -187 -4z"/>
<path d="M2254 2217 c-2 -7 -3 -107 -2 -222 l3 -210 200 0 c224 0 239 4 296
75 62 77 60 224 -4 297 -57 65 -88 73 -300 73 -143 0 -189 -3 -193 -13z m367
-107 c35 -16 49 -49 49 -111 0 -42 -5 -55 -29 -80 -29 -29 -31 -29 -145 -29
l-116 0 0 113 c0 63 3 117 8 121 11 12 203 1 233 -14z"/>
<path d="M3025 2211 c-83 -38 -119 -109 -113 -226 3 -62 8 -80 33 -116 55 -77
80 -84 310 -84 l200 0 0 135 0 135 -135 0 -135 0 0 -50 0 -50 83 -3 83 -3 -3
-32 -3 -32 -120 1 c-74 0 -129 5 -142 12 -36 20 -56 68 -51 124 9 93 46 107
276 108 l152 0 0 50 0 50 -197 0 c-170 0 -204 -3 -238 -19z"/>
<path d="M3590 2180 l0 -50 235 0 235 0 0 50 0 50 -235 0 -235 0 0 -50z"/>
<path d="M3592 2008 l3 -53 208 -3 207 -2 0 55 0 55 -211 0 -210 0 3 -52z"/>
<path d="M3590 1830 l0 -50 235 0 235 0 0 50 0 50 -235 0 -235 0 0 -50z"/>
<path d="M4447 2223 c-4 -3 -7 -26 -7 -50 l0 -43 53 0 c28 0 58 -4 65 -8 9 -6
12 -37 10 -118 l-3 -109 -40 -3 c-83 -5 -86 -7 -83 -60 l3 -47 185 0 185 0 3
47 c3 53 0 55 -83 60 l-40 3 -3 104 c-2 67 1 108 9 117 7 9 31 14 65 14 l54 0
0 50 0 50 -183 0 c-101 0 -187 -3 -190 -7z"/>
<path d="M4950 2005 l0 -225 60 0 59 0 3 142 c2 93 7 143 14 145 6 2 71 -62
144 -142 l132 -145 79 0 79 0 0 225 0 225 -60 0 -59 0 -3 -142 c-2 -88 -7
-143 -14 -145 -5 -2 -70 62 -142 142 l-133 145 -79 0 -80 0 0 -225z"/>
</g>
</svg>
